<svg width="64" height="64" version="1.1" xmlns="http://www.w3.org/2000/svg" desc="Created with imagetracer.js version 1.2.6" ><path fill="rgb(14,184,220)" stroke="rgb(14,184,220)" stroke-width="1" opacity="0.7764705882352941" d="M 23 8 Q 29.4 5.7 27 13.5 L 36 23.5 L 37 26.5 L 35.5 29 L 39 27.5 L 38 24.5 L 39.5 23 L 45 18.5 L 47.5 12 L 48.5 15 L 49.5 12 L 50.5 15 L 51.5 13 L 52 14.5 L 50.5 17 L 49.5 15 L 48 18.5 L 50 18.5 L 42.5 27 L 21.5 35 L 19.5 34 L 17 35 Q 15.9 37.7 18.5 37 L 34 44 Q 35.8 48.5 30.5 47 L 15.5 40 L 14 40.5 L 11 36.5 L 11 33.5 L 15.5 30 L 30.5 26 Q 31.7 28.3 33 25.5 L 24 18.5 L 23 16.5 L 24 14.5 L 23 8 Z M 45 20 L 43 22 L 45 22 L 45 20 Z M 43 24 L 42 26 L 44 25 L 43 24 Z " /><path fill="rgb(9,9,9)" stroke="rgb(9,9,9)" stroke-width="1" opacity="0.2196078431372549" d="M 18 48 L 28.5 48 L 29.5 49 L 32.5 48 Q 37.3 46.8 38.5 49 L 42.5 48 Q 45.3 49.3 43 50.5 L 44 53.5 L 43 55.5 L 44.5 55 L 52.5 55 L 54 56.5 L 53.5 58 L 45 58 L 44.5 56 L 44 58 L 10.5 58 L 9 56.5 Q 8.4 53.8 14.5 55 L 16.5 55 L 18 54.5 L 18 48 Z M 31 50 Q 30 54 33 53 Q 34 49 31 50 Z M 35 50 Q 34 55 38 53 Q 40 49 35 50 Z " /><path fill="rgb(0,0,0)" stroke="rgb(0,0,0)" stroke-width="1" opacity="0" d="M 0 0 L 64 0 L 64 64 L 0 64 L 0 0 Z M 23 7 L 22 10 L 23 14 L 22 16 L 23 19 L 30 25 Q 23 29 14 30 L 10 34 Q 11 40 16 43 L 18 42 L 29 47 Q 31 46 30 49 L 29 48 L 18 48 L 18 55 L 17 55 L 15 55 Q 8 54 9 57 L 11 58 L 44 58 L 43 55 L 45 52 Q 42 53 43 51 Q 45 49 43 48 L 39 49 L 34 48 L 35 45 L 20 37 L 19 35 L 21 36 Q 35 33 46 26 Q 51 21 53 12 L 52 12 L 47 11 L 44 19 L 38 24 L 29 16 L 27 9 L 27 7 L 23 7 Z M 45 55 L 45 58 L 54 58 L 54 57 L 53 55 L 45 55 Z " /><path fill="rgb(0,0,0)" stroke="rgb(0,0,0)" stroke-width="1" opacity="0" d="M 31 50 Q 34.3 48.9 33 53 Q 29.7 54.1 31 50 Z " /><path fill="rgb(0,0,0)" stroke="rgb(0,0,0)" stroke-width="1" opacity="0" d="M 35 50 Q 39.5 48.5 38 53 Q 33.5 54.5 35 50 Z " /><path fill="rgb(0,0,0)" stroke="rgb(0,0,0)" stroke-width="1" opacity="0" d="M 19.5 54 L 22 55.5 L 20.5 56 L 19.5 54 Z " /><path fill="rgb(49,178,212)" stroke="rgb(49,178,212)" stroke-width="1" opacity="0.16470588235294117" d="M 23.5 7 L 27 7.5 L 23.5 8 L 23.5 7 Z " /><path fill="rgb(49,178,212)" stroke="rgb(49,178,212)" stroke-width="1" opacity="0.16470588235294117" d="M 22.5 9 L 23 12.5 L 22 12.5 L 22.5 9 Z " /><path fill="rgb(49,178,212)" stroke="rgb(49,178,212)" stroke-width="1" opacity="0.16470588235294117" d="M 27.5 9 L 29 15.5 L 37.5 24 L 44 18.5 L 46.5 13 L 47.5 15 L 48 12.5 L 47.5 11 L 51.5 12 L 53 11.5 Q 51.5 20.9 45.5 26 Q 38.2 31.7 27.5 34 L 27.5 33 L 35 30.5 L 34 29.5 L 37 26.5 L 36 23.5 L 28 15.5 L 27.5 9 Z M 50 12 L 49 15 L 50 15 L 50 12 Z M 47 19 L 45 22 L 47 21 L 47 19 Z M 44 22 L 43 24 L 45 23 L 44 22 Z " /><path fill="rgb(49,178,212)" stroke="rgb(49,178,212)" stroke-width="1" opacity="0.16470588235294117" d="M 23.5 14 L 24 15.5 L 24 17.5 L 24.5 19 Q 25.8 16.8 27 19.5 Q 24.8 20.8 27.5 22 L 33 25.5 L 30 27.5 L 30.5 26 L 19.5 29 L 19.5 28 L 22.5 28 L 30 24.5 L 23 18.5 L 22 15.5 L 23.5 14 Z " /><path fill="rgb(49,178,212)" stroke="rgb(49,178,212)" stroke-width="1" opacity="0.16470588235294117" d="M 13.5 30 L 15 30.5 L 13 31.5 L 13 33.5 L 12.5 35 L 11.5 33 L 10.5 36 L 10 33.5 L 13.5 30 Z " /><path fill="rgb(49,178,212)" stroke="rgb(49,178,212)" stroke-width="1" opacity="0.16470588235294117" d="M 19.5 34 L 22.5 35 L 25.5 34 L 25.5 35 L 20.5 36 L 19.5 34 Z " /><path fill="rgb(49,178,212)" stroke="rgb(49,178,212)" stroke-width="1" opacity="0.16470588235294117" d="M 17.5 35 L 29 41.5 L 27.5 42 L 17 37 L 17.5 35 Z " /><path fill="rgb(49,178,212)" stroke="rgb(49,178,212)" stroke-width="1" opacity="0.16470588235294117" d="M 11.5 37 L 14.5 41 L 16.5 40 Q 23.6 45.7 34 47 Q 35.5 43.2 32.5 44 L 30 42.5 L 31.5 42 L 35 44.5 L 33.5 48 L 30.5 48 L 17.5 42 L 15.5 43 Q 11.4 40.7 11.5 37 Z " /></svg>